<svg xmlns="http://www.w3.org/2000/svg" width="826.6" height="764.9">
  <style>
    .st0{fill:#616261}.st1,.st2{opacity:.4}.st2{fill:#616261;enable-background:new}.st3,.st4{fill:#616261;stroke:#656668;stroke-width:.6237;stroke-miterlimit:10}.st4{fill:none;stroke:#616261;stroke-width:.9871}
  </style>
  <g id="shape_1_">
    <path class="st0" d="M294.3 39.4l-6.5-18.9-1.4.5 6.5 18.9zM419.5.1H418l-.3 20h1.5zM307.8 35.1L302 15.9l-1.4.5 5.8 19.1zM321.4 31.3l-5-19.3-1.5.3 5 19.4zM287.7 41.8L280.8 23l-1.4.5 6.9 18.8zM314.5 33.2l-5.3-19.3-1.5.4 5.4 19.3zM328.2 29.7l-4.6-19.5-1.5.3 4.7 19.5zM261.6 52.4l-8.3-18.2-1.4.6 8.4 18.2zM255.2 55.4l-8.6-18.1-1.4.7 8.7 18zM242.7 61.7L233.3 44l-1.3.7 9.4 17.7zM281.1 44.2l-7.2-18.6-1.5.5 7.3 18.7zM274.5 46.8l-7.6-18.5-1.4.6 7.7 18.5zM268 49.6l-7.9-18.4-1.4.6 8 18.3zM248.9 58.5l-9-17.9-1.3.7 9 17.8zM390.9 20.6l-1.1-20-1.5.1 1.2 20zM383.9 21.1l-1.5-20-1.5.1 1.6 20zM376.9 21.7l-1.9-20-1.5.2 1.9 19.9zM398 20.2L397.3.3h-1.6l.8 20zM405 20.1l-.3-20h-1.6l.5 20zM411.6 20h.5V0h-1.5v20zM342 26.7l-3.8-19.6-1.5.2 3.9 19.7zM348.9 25.4l-3.4-19.7-1.5.3 3.5 19.7zM369.9 22.4l-2.3-19.9-1.5.2 2.3 19.9zM335.1 28.1l-4.2-19.5-1.5.3 4.2 19.5zM362.9 23.3l-2.7-19.9-1.5.2 2.7 19.8zM355.9 24.3l-3.1-19.8-1.5.2 3.1 19.8zM301 37.2l-6.1-19.1-1.4.5 6.1 19zM143 139.1l-14.8-13.4-1 1.1 14.9 13.4zM147.8 133.9l-14.5-13.7-1.1 1.1 14.6 13.7zM138.3 144.4l-15-13.2-1 1.2 15.1 13.1zM152.7 128.8l-14.3-13.9-1.1 1 14.4 14zM157.7 123.9l-14-14.3-1.1 1.1 14 14.2zM133.8 149.8l-15.4-12.9-1 1.2 15.4 12.8zM120.6 166.4l-16-12-.9 1.3 16.1 11.8zM112.4 177.9l-16.5-11.3-.8 1.2 16.5 11.3zM116.5 172.1l-16.3-11.6-.9 1.2 16.3 11.6zM124.9 160.7l-15.8-12.2-1 1.2 15.9 12.2zM129.3 155.2l-15.6-12.5-1 1.2 15.7 12.5zM162.8 119L149 104.4l-1.1 1.1 13.8 14.5zM173.2 109.5L160 94.4l-1.1 1 13.2 15zM167.9 114.2l-13.4-14.8-1.1 1 13.5 14.7zM218.3 75.8l-10.7-16.9-1.2.8 10.7 16.9zM206.6 83.6l-11.4-16.5-1.2.8 11.4 16.5zM212.4 79.6l-11-16.7-1.3.9 11.1 16.6zM224.3 72.1L214 55l-1.3.8 10.4 17.1zM230.4 68.5l-10-17.3-1.4.8 10.1 17.2zM200.8 87.6l-11.6-16.3-1.3.9 11.7 16.2zM236.5 65.1l-9.7-17.5-1.3.7 9.7 17.5zM178.6 104.9l-12.9-15.3-1.2 1 12.9 15.2zM184 100.4l-12.6-15.6-1.2 1 12.7 15.5zM189.5 96l-12.2-15.8-1.3 1 12.4 15.7zM195.1 91.8l-11.9-16.1-1.3.9 12.1 16zM478.8 5.9l-1.6-.3-3.4 19.7 1.5.3zM651.2 110.5l13.3-15-1.2-1-13.2 15zM666.7 124.9l14.1-14.2-1.1-1.1-14 14.3zM600.1 72.8l10.5-17.1-1.4-.8-10.3 17.2zM634.9 96.9l12.4-15.7-1.2-1L633.8 96zM656.5 115.2l13.5-14.7-1.2-1.1-13.4 14.8zM661.6 120l13.8-14.5-1.1-1-13.7 14.5zM645.9 105.9l12.9-15.3-1.2-1-12.8 15.3zM606.1 76.5l10.8-16.8-1.3-.8-10.7 16.9zM629.3 92.6l12.1-15.9-1.3-1-11.9 16.1zM612 80.4l11.1-16.6-1.3-.9-11 16.7zM617.9 84.4l11.4-16.5-1.3-.8-11.3 16.4zM623.7 88.4l11.7-16.2-1.3-.9-11.6 16.3zM640.5 101.4l12.6-15.6-1.2-.9-12.6 15.5zM707.7 173.3l16.3-11.6-.9-1.3-16.3 11.7zM671.7 129.9L686 116l-1.1-1.1-14.3 14zM711.7 179l16.5-11.2-.9-1.3-16.5 11.3zM735.8 180.6l.5-.3-.8-1.4-2.7 1.7zM722.1 180.6l10.2-6.6-.8-1.3-12.1 7.9zM699.3 161.9l15.9-12.2-1-1.2-15.8 12.3zM703.5 167.6l16.1-11.9-.9-1.3-16 12zM695 156.4l15.6-12.5-1-1.2-15.6 12.5zM676.5 135l14.6-13.6-1-1.1-14.6 13.7zM681.3 140.2l14.9-13.3-1.1-1.2-14.8 13.4zM690.5 150.9l15.4-12.8-1-1.2-15.3 12.9zM686 145.5l15.1-13.1-1-1.1-15.1 13.1zM464 3.6l-1.5-.2-2.6 19.8 1.4.2zM486.1 7.2l-1.5-.3-3.8 19.7 1.4.3zM493.4 8.8l-1.5-.4-4.2 19.6 1.4.3zM103.8 180.6l-12-7.8-.9 1.2 10.1 6.6zM507.8 12.2l-1.4-.4-5 19.4 1.4.4zM471.4 4.6l-1.5-.2-3 19.8 1.4.2zM500.6 10.4l-1.5-.3-4.5 19.4 1.4.4zM434.4.7l-1.5-.1-1.1 20h1.5zM515 14.1l-1.5-.4-5.3 19.3 1.4.4zM427 .3l-1.5-.1-.8 20 1.5.1zM441.8 1.2l-1.5-.1-1.5 19.9 1.5.1zM456.7 2.6l-1.6-.2-2.2 19.9 1.4.2zM449.3 1.8l-1.6-.1-1.8 19.9 1.4.1zM575.5 59l9-17.8-1.4-.7-9 17.9zM569.1 55.9l8.7-18-1.4-.7-8.6 18.1zM556.2 50l8-18.3-1.4-.6-7.9 18.3zM594.1 69.2l10.1-17.3-1.4-.8-10 17.3zM516.4 35.4l5.8-19.2-1.5-.4-5.7 19.1zM587.9 65.7l9.8-17.5-1.4-.7-9.6 17.5zM581.7 62.3l9.4-17.7-1.3-.7-9.4 17.7zM562.7 52.9l8.4-18.2-1.4-.6-8.3 18.2zM549.8 47.2l7.6-18.4-1.5-.6-7.5 18.5zM523.2 37.5l6.1-19.1-1.5-.4-6 19zM529.9 39.7l6.5-18.9-1.5-.5-6.4 18.9zM536.6 42.1l6.9-18.8-1.5-.5-6.8 18.8zM543.2 44.6l7.2-18.6-1.4-.6-7.2 18.7zM687.6 617.5l15.2 12.9 1-1.1-15.3-13zM526.1 726.4l6.3 19 1.5-.5-6.4-18.9zM532.8 724.1l6.7 18.9 1.4-.5-6.8-18.8zM519.4 728.6l5.9 19.1 1.5-.5-6-19zM505.8 732.5l5.2 19.3 1.5-.4-5.3-19.3zM512.6 730.6l5.6 19.2 1.5-.4-5.7-19.2zM539.4 721.7l7.1 18.7 1.4-.5-7.1-18.7zM584.1 701.3l9.6 17.6 1.3-.8-9.6-17.5zM571.6 707.8l8.9 17.9 1.3-.7-8.8-17.9zM577.9 704.6l9.2 17.7 1.4-.7-9.3-17.7zM546 719.2l7.4 18.6 1.4-.6-7.5-18.6zM408 764.9h1.5l.1-20h-1.5zM558.9 713.7l8.2 18.3 1.3-.6-8.2-18.3zM499 734.3l4.8 19.4 1.5-.4-4.9-19.4zM552.5 716.5l7.7 18.4 1.5-.6-7.9-18.4zM429.3 744.5l1 19.9h1.5l-1-20zM450.4 742.8l2.1 19.9 1.6-.1-2.2-19.9zM443.4 743.5l1.7 19.9 1.5-.1-1.8-19.9zM492.1 735.9l4.5 19.5 1.5-.3-4.5-19.5zM422.3 744.7l.5 20h1.6l-.7-20zM415.2 744.9l.2 20 1.5-.1-.2-20zM436.3 744.1l1.4 19.9 1.5-.1-1.4-19.9zM485.2 737.4l4.1 19.6 1.5-.3-4.1-19.6zM478.3 738.8l3.7 19.6 1.5-.3-3.7-19.6zM464.4 741.1l2.9 19.8 1.5-.3-2.9-19.7zM471.4 740l3.2 19.7 1.6-.2-3.4-19.8zM457.4 742l2.5 19.9 1.5-.2-2.5-19.9zM565.3 710.8l8.5 18.1 1.4-.7-8.6-18zM696.5 606.5l15.7 12.4 1-1.2-15.8-12.3zM682.9 622.8l15 13.3 1-1.2-15-13.2zM692.1 612l15.5 12.7.9-1.2-15.5-12.6zM678.2 628l14.7 13.6 1.1-1.2-14.8-13.4zM673.4 633.2l14.4 13.8 1.1-1.1-14.5-13.8zM668.4 638.2l14.2 14.1 1.1-1.1-14.2-14zM716.4 585.9l13.3 8.9.9-1.3-11.5-7.6zM729.6 585.9l4.2 2.7.9-1.3-2.2-1.4zM663.4 643.2l13.9 14.3 1.1-1-13.9-14.4zM709.1 589.5l16.4 11.5.9-1.3-16.4-11.4zM700.8 601l16 12 .9-1.2-16-12zM705 595.3l16.2 11.7.9-1.2-16.2-11.7zM631.4 670.7l12.1 15.9 1.2-.9-12.2-15.9zM614.2 683l11.2 16.6 1.3-.8-11.3-16.6zM658.3 648l13.6 14.7 1.1-1.1-13.6-14.6zM620 679l11.5 16.4 1.3-.9-11.6-16.3zM625.7 674.9l11.8 16.2 1.3-1-11.9-16zM90.3 180.6l-2.6-1.6-.8 1.3.5.3zM602.4 690.7l10.5 17 1.3-.8-10.6-17zM608.3 686.9l10.9 16.8 1.3-.8-10.9-16.8zM590.3 697.9l9.8 17.4c.5-.3.9-.5 1.4-.8l-9.9-17.3c-.5.2-.9.4-1.3.7zM653.1 652.8l13.3 14.9 1.2-1.1-13.4-14.8zM647.8 657.4l13 15.2 1.2-1-13.1-15.1zM636.9 666.4l12.5 15.6 1.2-.9-12.5-15.6zM642.4 662l12.7 15.4 1.2-1-12.8-15.4zM596.4 694.3l10.2 17.2 1.3-.7-10.3-17.2zM175.1 657L162 672.2l1.2 1 13-15.2zM191.5 670.4l-12.1 15.9 1.2.9 12.1-15.9zM186 666.1l-12.5 15.6 1.2 1 12.4-15.7zM226.6 694.2l-10.2 17.1 1.3.8 10.2-17.2zM169.8 652.4l-13.4 14.9 1.2 1 13.3-14.9zM164.6 647.6L151 662.3l1.1 1 13.6-14.7zM208.7 682.8l-11.2 16.5 1.3.9 11.1-16.6zM220.6 690.5l-10.6 17 1.3.8 10.5-17.1zM214.6 686.7l-10.9 16.8 1.3.8 10.8-16.8zM202.9 678.8l-11.5 16.3 1.2.9 11.5-16.4zM159.5 642.8l-13.9 14.3 1.1 1.1 13.8-14.4zM197.2 674.6l-11.9 16.2 1.3.9 11.8-16.2zM180.5 661.6L167.7 677l1.2 1 12.7-15.5zM118 594.9l-16.2 11.7.9 1.3 16.1-11.8zM122.2 600.5l-16 12.1.9 1.2 15.9-12.1zM113.9 589.1l-16.4 11.5.8 1.2 16.4-11.5zM106.1 585.9l-12.8 8.6.8 1.2 14.6-9.8zM126.5 606.1l-15.8 12.4 1 1.2 15.7-12.4zM92.9 585.9l-3.7 2.3.9 1.3 5.6-3.6zM140 622.4l-15 13.2 1 1.2 15-13.3zM149.5 632.8l-14.4 13.8 1 1.1 14.4-13.9zM130.9 611.6l-15.5 12.7.9 1.2 15.5-12.7zM144.7 627.6L130 641.1l1 1.2 14.7-13.6zM135.4 617.1L120.1 630l1 1.2 15.2-13zM154.4 637.8l-14.1 14.1 1 1.1 14.2-14.2zM232.7 697.7l-9.9 17.4 1.4.7 9.8-17.4zM356.1 760.9l1.5.2 2.8-19.8-1.5-.2zM312.4 751.9l1.4.4 5.1-19.4-1.4-.4zM400.5 764.7l1.6.1.5-20-1.5-.1zM334.1 757l1.5.3 3.9-19.6-1.4-.3zM319.5 753.7l1.5.4 4.8-19.5-1.4-.3zM326.8 755.4l1.5.4 4.3-19.6-1.4-.3zM341.4 758.4l1.5.3 3.6-19.7-1.5-.2zM393.1 764.4l1.5.1.9-20h-1.4zM385.7 764l1.5.1 1.3-20H387zM363.4 761.9l1.6.2 2.4-19.9-1.5-.2zM378.2 763.4l1.6.2 1.6-20-1.4-.1zM370.8 762.7l1.6.2 2-19.9-1.5-.2zM348.7 759.7l1.5.3 3.2-19.8-1.4-.2zM251.5 707.6l-8.9 18 1.4.7 8.8-18zM257.8 710.7l-8.5 18.1c.5.2 1 .5 1.4.7l8.4-18.1-1.3-.7zM264.3 713.7l-8.2 18.2 1.4.6 8.1-18.3zM238.9 701.1l-9.6 17.6 1.4.8 9.5-17.7zM245.2 704.5l-9.2 17.7c.5.2.9.5 1.4.7l9.1-17.8c-.5-.2-.9-.4-1.3-.6zM270.7 716.5l-7.7 18.4 1.4.6 7.7-18.5zM277.3 719.2l-7.4 18.5 1.4.6 7.3-18.6zM297.2 726.5l-6.3 18.9 1.5.5 6.2-19zM304 728.6l-6 19.1 1.5.5 5.9-19.1zM283.9 721.7l-7.1 18.7 1.5.6 6.9-18.8zM305.2 749.9l1.5.4 5.4-19.3-1.4-.4zM290.5 724.1l-6.6 18.9 1.4.5 6.6-18.9z"/>
    <g>
      <path class="st0" d="M37.9 264.4L54.3 248l2.3-2.3 16.3-16.3 2.3-2.3 16.3-16.3 2.3-2.3 16.3-16.3 2.3-2.3 1.6-1.6h-2.3l-4 4-14 14L89 211l-14 14-4.7 4.7-14 14-4.7 4.7-14 14-4.7 4.7L31 269c-.3 1.1-.6 2.2-1 3.3l5.5-5.5 2.4-2.4zM93.9 196.7l-14 14-4.7 4.7-14 14-4.7 4.7-14 14-4.7 4.7-2.6 2.6c-.4 1.2-.8 2.3-1.1 3.5l3.8-3.7 7-7 11.7-11.7 7-7 11.7-11.7 7-7L93.9 199l7-7 4-4h-2.3l-4 4-4.7 4.7zM37.9 283l16.3-16.3 2.3-2.3L72.9 248l2.3-2.3 16.3-16.3 2.3-2.3 16.3-16.3 2.3-2.3 11.3-11.3c1.5-2.3 3-4.5 4.5-6.8l-1.8 1.8-14 14-4.7 4.7-14 14-4.7 4.7-14 14-4.7 4.7-14 14-4.7 4.7-14 14-4.7 4.7-8.8 8.8c-.2 1-.5 2-.7 3l11.8-11.8 2.7-2.7zM112.6 196.7l-14 14-4.7 4.7-14 14-4.7 4.7-14 14-4.7 4.7-14 14-4.7 4.7L27.3 282c-.3 1-.5 2.1-.8 3.1l11.3-11.3 7-7L56.6 255l7-7 11.7-11.7 7-7L94 217.6l7-7 11.7-11.7 7-7 4-4h-2.3l-4 4-4.8 4.8zM98.6 229.4l-4.7 4.7-14 14-4.7 4.7-14 14-4.7 4.7-14 14-4.7 4.7-14 14-2 2c-.2 1-.4 1.9-.5 2.9l4.8-4.8 11.7-11.7 7-7 11.7-11.7 7-7L75.3 255l7-7L94 236.3l7-7 9.7-9.7c.9-1.7 1.9-3.5 2.8-5.2l-.9.9-14 14.1zM56.6 227l16.3-16.3 2.3-2.3L91.6 192l2.3-2.3 1.6-1.6h-2.3l-4 4-14 14-4.7 4.7-14 14-4.7 4.7-11.4 11.4c-.5 1.2-.9 2.5-1.4 3.7l15.1-15.1 2.5-2.5zM63.6 192l4-4h-2.3l-.4.4c-.9 1.7-1.9 3.4-2.8 5.1l1.5-1.5zM56.6 222.4l11.7-11.7 7-7L86.9 192l4-4h-2.3l-4 4-9.3 9.3-9.3 9.3-9.3 9.3-9.3 9.3-3.7 3.7-1.5 3.9 7.6-7.6 6.8-6.8zM48.7 221l8-8 2.3-2.3 16.3-16.3 2.3-2.3 4-4h-2.3l-28.7 28.7c-.7 1.4-1.3 2.8-1.9 4.2zM72.2 188.1h-2.3l-4 4-6.5 6.5-2.4 4.8L68.3 192l3.9-3.9zM63.6 210.7L75.3 199l7-7 4-4H84l-4 4-4.7 4.7-14 14-4.7 4.7-9.8 9.8c-.2.5-.5 1.1-.7 1.6-.3.8-.7 1.6-1 2.4l11.5-11.5 7-7zM49.6 248l7-7 11.7-11.7 7-7L87 210.6l7-7 11.7-11.7 4-4h-2.3l-4 4-9.3 9.3-9.3 9.3-9.3 9.3-9.3 9.3-9.3 9.3-9.3 9.3-9.3 9.3-4.8 4.8c-.4 1.1-.7 2.3-1 3.4l5.9-5.9L49.6 248zM56.6 208.4L72.9 192l2.3-2.3 1.6-1.6h-2.3l-4 4-14 14-1.9 1.9-2.1 4.5 1.7-1.7 2.4-2.4zM19.3 383.4l-4.5 4.5v2.3l4.5-4.5 7-7 3.6-3.6v-2.4l-6 6-4.6 4.7zM37.9 301.7l16.3-16.3 2.3-2.3 16.3-16.3 2.3-2.3 16.3-16.3 2.3-2.3 7.4-7.4c.7-1.5 1.4-2.9 2.1-4.4l-9.4 9.4-4.7 4.7-14 14-4.7 4.7-14 14-4.7 4.7-14 14-4.7 4.7-13.3 13.3c-.1.9-.3 1.8-.4 2.8l16.1-16.1 2.5-2.6zM19.3 364.7L15 369c0 .8 0 1.6-.1 2.4l4.4-4.4 7-7 4.4-4.4c.1-.8.1-1.7.2-2.5L24 360l-4.7 4.7zM19.3 371.7l11.1-11.1c0-.8.1-1.6.1-2.5l-1.9 1.9-9.3 9.3-4.5 4.5v2.4l4.5-4.5zM19.3 409l10.9-10.8c0-.8 0-1.5-.1-2.3l-1.4 1.4-9.3 9.3-3.6 3.6c0 .7.1 1.5.1 2.2l3.4-3.4zM19.3 402l-3.9 3.9c0 .7.1 1.5.1 2.2l3.8-3.8 7-7 3.7-3.7c0-.8 0-1.5-.1-2.3l-6 6-4.6 4.7zM19.3 390.4l10.6-10.6v-2.4l-1.2 1.2-9.3 9.3-4.4 4.4c0 .8 0 1.5.1 2.3l4.2-4.2zM19.3 334.4L31 322.7l3.9-3.9c.1-.9.3-1.8.4-2.8l-6.7 6.7-9.3 9.3-1.6 1.6-.3 2.7 1.9-1.9zM79.9 266.7l-4.7 4.7-14 14-4.7 4.7-14 14-4.7 4.7-14 14-4.7 4.7-1 1c-.1.9-.2 1.8-.4 2.7l1.3-1.3 7-7L37.9 311l7-7 11.7-11.7 7-7 11.7-11.7 7-7L93.9 255l.3-.3c.5-1.3 1.1-2.6 1.6-4l-1.9 1.9-14 14.1zM56.6 306.4l2.3-2.3 16.3-16.3 2.3-2.3 8.8-8.8c.4-1.2.7-2.3 1.1-3.4l-42 42h2.3l8.9-8.9zM19.3 353L31 341.3l1-1c.1-.9.2-1.8.3-2.6l-3.7 3.7-9.3 9.3-3.6 3.6c-.1.8-.1 1.7-.2 2.5l3.8-3.8zM75.3 306.4l2.3-2.3 1.5-1.5c.2-1 .5-2 .7-3.1l-15.7 15.7h2.3l8.9-8.8zM19.3 346l-3.2 3.2c-.1.8-.1 1.7-.2 2.5l3.4-3.4 7-7 6.3-6.3c.1-.9.2-1.8.3-2.6l-9 9-4.6 4.6zM75.3 276l-9.3 9.3-9.3 9.3-9.3 9.3-9.3 9.3-1.8 1.8h2.3l11-11 7-7 11.7-11.7 7-7L87 266.7l4.4-4.4c.5-1.3.9-2.5 1.4-3.8l-8.1 8.1-9.4 9.4zM49.6 490.7l7-7L68.3 472l7-7 3.6-3.6c-.1-.6-.3-1.3-.4-1.9l-3.1 3.1-9.3 9.3-9.3 9.3-9.3 9.3L38 500l-4.3 4.3.6 1.8 3.7-3.7 11.6-11.7zM68.3 546.7l7-7L87 528l7-7 3.4-3.4c-.2-.5-.5-1.1-.7-1.6l-2.7 2.7-9.3 9.3-9.3 9.3-9.3 9.3-9.3 9.3-1.6 1.6c.3.5.5 1 .8 1.6l.8-.8 11.5-11.6zM75.3 558.4L87 546.7l7-7 9.2-9.2c-.2-.5-.5-1-.8-1.6l-8.5 8.5-9.3 9.3-9.3 9.3-9.3 9.3-4.6 4.6c.3.5.5 1 .8 1.5l6.1-6.1 7-6.9zM112.6 201.3l-9.3 9.3L94 220l-9.3 9.3-9.3 9.3L66 248l-9.3 9.3-9.3 9.3L38 276l-9.3 9.3L26 288c-.2 1-.5 2-.7 3l5.8-5.8 7-7 11.7-11.7 7-7L68.3 248l7-7L87 229.3l7-7 11.7-11.7 7-7 11.7-11.7 4-4H126l-4 4-9.4 9.4zM56.6 521.1l11.7-11.7 7-7L87 490.7l.1-.1-.6-1.8-1.9 1.9-9.3 9.3-9.3 9.3-9.3 9.3-9.3 9.3-3.7 3.7c.2.5.4 1.1.7 1.7l5.4-5.4 6.8-6.8zM93.9 558.4l11.7-11.7 3.8-3.8c-.3-.5-.5-1-.8-1.5l-5.3 5.3L94 556l-9.3 9.3-9.3 9.3-3.7 3.7H74l1.4-1.4L87 565.4l6.9-7zM68.3 528.1l7-7L87 509.4l5-5c-.2-.6-.4-1.1-.6-1.7l-6.7 6.7-9.3 9.3L66 528l-9.3 9.3-7.5 7.5c.2.5.5 1.1.7 1.6l6.8-6.8 11.6-11.5zM54.3 490.7l2.3-2.3 16.3-16.3 2.3-2.3 4.5-4.5c-.1-.6-.3-1.2-.5-1.9l-4 4-4.7 4.7-14 14-4.7 4.7-14 14-3.2 3.2.6 1.8.2-.2 2.3-2.3 16.6-16.6zM127.5 578.5h2.3l.6-.7c-.3-.5-.6-.9-1-1.4l-1.9 2.1zM56.6 525.7l16.3-16.3 2.3-2.3 13-13c-.2-.6-.4-1.2-.6-1.7l-12.4 12.4-4.7 4.7-14 14-4.7 4.7-7 7c.2.5.5 1.1.7 1.7l8.7-8.7 2.4-2.5zM108.9 578.5h2.3l1.4-1.4 10.5-10.5c-.3-.5-.6-1-.9-1.4l-.3.3-9.3 9.3-3.7 3.7zM112.6 558.4l3.4-3.4-.9-1.5-2.6 2.6-9.3 9.3-9.3 9.3-3.7 3.7h2.3l1.4-1.4 11.7-11.7 7-6.9zM125.2 578.5l3.4-3.4c-.3-.5-.6-.9-.9-1.4l-4.8 4.8h2.3zM56.6 502.4l11.7-11.7 7-7 7.4-7.4c-.2-.6-.3-1.2-.5-1.8l-6.9 6.9-9.3 9.3-9.3 9.3-9.3 9.3-8.9 8.9c.2.6.4 1.1.6 1.7l10.6-10.6 6.9-6.9zM22.2 459.8c.1.7.2 1.3.4 2l8.4-8.4 4.7-4.7h-.4c-.1-.5-.2-1.1-.3-1.7l-6.4 6.4-6.4 6.4zM68.8 315.2h2.3l4.1-4.1 2.4-2.4c.2-1 .4-2 .7-3l-3.1 3.1-6.4 6.4zM75.3 301.7l5.3-5.3c.3-1.1.6-2.1.9-3.2l-6.2 6.2-4.7 4.7-11.1 11.1h2.3L72.9 304l2.4-2.3zM75.3 290l-14 14-4.7 4.7-6.5 6.5h2.3l4.1-4.1 7-7 11.7-11.7 7-7 2-2c.3-1.1.7-2.2 1-3.4l-5.3 5.3-4.6 4.7zM124 568l-10.5 10.5h2.3l9-9c-.2-.6-.5-1-.8-1.5zM37.9 462.7l-9.3 9.3-3.1 3.1c.1.6.3 1.3.5 1.9l5-5 7-7 11.7-11.7 4.7-4.7H52l-4.7 4.7-9.4 9.4zM103.3 229.4l-9.3 9.3-9.3 9.3-9.3 9.3-9.3 9.3-9.3 9.3-9.3 9.3-9.3 9.3-9.3 9.3-7.7 7.7c-.2.9-.3 1.9-.5 2.8L31 304l7-7 11.7-11.7 7-7 11.7-11.7 7-7L87 248l7-7 11.7-11.7c.8-1.6 1.5-3.1 2.4-4.7l-4.8 4.8zM37.9 483.7L49.6 472l7-7 11.7-11.7 4.7-4.7h-2.3l-4.7 4.7-9.3 9.3-9.3 9.3-9.3 9.3-8.6 8.6c.2.6.3 1.2.5 1.8l1.1-1.1 6.8-6.8zM73.5 315.2h2.3l.6-.6.6-3-1.8 1.8-1.7 1.8zM19.3 420.7l-2.5 2.5c.1.7.1 1.4.2 2.1l2.3-2.3 7-7 4.6-4.6c0-.7-.1-1.5-.2-2.2l-6.8 6.8-4.6 4.7zM54.3 304l2.3-2.3 16.3-16.3 2.3-2.3 13.4-13.4c.4-1.2.8-2.4 1.3-3.6l-.7.7-14 14-4.7 4.7-14 14-4.7 4.7-11.1 11.1H43L54.3 304zM75.3 297l7-7c.3-1.1.6-2.2 1-3.3l-8 8L66 304l-9.3 9.3-1.8 1.8h2.3L68.3 304l7-7zM19.3 376.4l10.9-10.9c0-.8.1-1.6.1-2.5l-11 11-4.5 4.5v2.4l2.2-2.2 2.3-2.3zM19.3 395l10.5-10.5v-2-.3l-10.5 10.5L15 397c0 .8.1 1.5.1 2.2l1.9-1.9 2.3-2.3zM19.3 437l2.3-2.3L32 424.4c-.1-.7-.1-1.4-.2-2.1l-13.5 13.5.3 2.1.7-.9zM19.3 399.7l2.3-2.3 8.3-8.3v-2.3l-14.7 14.7c0 .7.1 1.5.1 2.2l4-4zM19.3 362.4l2.3-2.3 9.5-9.5c.1-.8.1-1.7.2-2.5l-16.1 16.1c0 .8-.1 1.6-.1 2.4l4.2-4.2zM19.3 413.7l11-11c0-.7-.1-1.5-.1-2.2l-10.9 10.9-3.3 3.3c.1.7.1 1.4.2 2.2l.8-.8 2.3-2.4zM19.3 418.4l2.3-2.3 9-9c0-.7-.1-1.5-.1-2.2L16.4 419c.1.7.1 1.4.2 2.1l2.7-2.7zM19.3 381l2.3-2.3 8.4-8.4c0-.8 0-1.6.1-2.4l-15.4 15.4v2.3l4.6-4.6zM37.9 287.7l2.3-2.3L56.6 269l2.3-2.3 16.3-16.3 2.3-2.3 16.3-16.3 2.3-2.3 16.3-16.3 2.3-2.3 1.6-1.6c1.1-1.9 2.3-3.9 3.5-5.8l-7.4 7.4L23 300.3c-.2 1-.4 2-.6 2.9l15.5-15.5zM19.3 325l2.3-2.3 16.3-16.3 2.3-2.3 16.3-16.3 2.3-2.3 16.3-16.3 2.3-2.3 16.3-16.3 2.3-2.3 1.3-1.3 1.8-4.2-80.3 80.3c-.1.9-.3 1.8-.4 2.7l.9-.8zM37.9 269l2.3-2.3 16.3-16.3 2.3-2.3 16.3-16.3 2.3-2.3 16.3-16.3 2.3-2.3 16.3-16.3 2.3-2.3 4-4h-2.3l-4 4-83.5 83.4c-.3 1.1-.6 2.1-.9 3.2l10-9.9zM19.3 339L34 324.3c.1-.9.3-1.8.4-2.8l-1.1 1.1-14 14-2.2 2.2c-.1.9-.2 1.7-.3 2.6l.2-.2 2.3-2.2zM19.3 343.7l2.3-2.3 11.6-11.6c.1-.9.2-1.8.4-2.7l-17.1 17.1c-.1.9-.2 1.7-.2 2.6l3-3.1zM19.3 357.7l12.2-12.2c.1-.9.2-1.7.2-2.6l-12.5 12.5-3.9 3.9c0 .8-.1 1.6-.1 2.5l1.7-1.7 2.4-2.4zM58.9 565.4l16.3-16.3 2.3-2.3 16.3-16.3 2.3-2.3 3.9-3.9c-.2-.5-.5-1.1-.7-1.6L58 564c.4.4.7.9.9 1.4zM56.6 530.4l2.3-2.3 16.3-16.3 2.3-2.3 11.9-11.9c-.2-.6-.4-1.2-.6-1.7l-42.6 42.6c.2.5.5 1.1.7 1.6l9.7-9.7zM37.9 250.4l2.3-2.3 16.3-16.3 2.3-2.3L75.2 213l2.3-2.3 16.3-16.3 2.3-2.3 4-4h-2.3l-60.1 60.1c-.4 1.2-.9 2.4-1.3 3.6l1.5-1.4zM21.6 453.4L34 440.9c-.1-.7-.2-1.4-.3-2l-13 13c.1.7.2 1.3.4 2l.5-.5zM75.3 567.7l2.3-2.3 16.3-16.3 2.3-2.3 10-10c-.3-.5-.5-1-.8-1.6L64.6 576c.3.5.5 1 .8 1.5l9.9-9.8zM93.9 567.7l2.3-2.3 16.3-16.3.1-.1c-.3-.5-.5-1-.8-1.5l-31 31h2.3l10.8-10.8zM112.6 567.7l2.3-2.3 4.6-4.6-.9-1.5-6 6-13.1 13.1h2.3l10.8-10.7zM56.6 549.1l2.3-2.3 16.3-16.3 2.3-2.3 16.3-16.3.7-.7c-.2-.5-.5-1.1-.7-1.7L52 551.3c.2.5.5 1.1.7 1.6l3.9-3.8zM37.9 455.7l2.3-2.3 4.7-4.7h-2.3l-18.9 18.9c.1.6.3 1.3.4 1.9l13.8-13.8zM37.9 474.4l2.3-2.3 16.3-16.3 2.3-2.3 4.7-4.7h-2.3l-34 34c.2.6.3 1.2.5 1.8l10.2-10.2zM37.9 493.1l2.3-2.3 16.3-16.3 2.3-2.3 16.3-16.3L77 454c-.1-.6-.3-1.3-.4-1.9l-45.3 45.3c.2.6.4 1.2.5 1.8l6.1-6.1zM37.9 511.7l2.3-2.3 16.3-16.3 2.3-2.3 16.3-16.3 2.3-2.3 3.1-3.1c-.2-.6-.3-1.2-.5-1.8l-44.3 44.3c.2.6.4 1.2.6 1.7l1.6-1.6zM56.6 511.7l2.3-2.3 16.3-16.3 2.3-2.3 7.2-7.2c-.2-.6-.4-1.2-.5-1.8l-43.4 43.4c.2.6.4 1.1.6 1.7l15.2-15.2zM75.3 476.7l-14 14-4.7 4.7-14 14-4.7 4.7-.8.8c.2.6.4 1.1.6 1.7l.2-.2 7-7 11.7-11.7 7-7L75.3 479l6.4-6.4c-.2-.6-.3-1.2-.5-1.8L80 472l-4.7 4.7zM56.6 458l-14 14-4.7 4.7-9.6 9.6c.2.6.3 1.2.5 1.8l9.1-9.1 7-7 11.7-11.7 7-7 4.7-4.7H66l-4.7 4.7-4.7 4.7zM37.9 469.7l16.3-16.3 2.3-2.3 2.4-2.4h-2.3l-4.7 4.7-14 14-4.7 4.7-6.9 6.9c.1.6.3 1.2.5 1.9l8.7-8.7 2.4-2.5zM37.9 488.4l16.3-16.3 2.3-2.3 16.3-16.3 2.3-2.3 1.1-1.1c-.1-.4-.2-.9-.3-1.3h-.8l-4.7 4.7-14 14-4.7 4.7-14 14-4.7 4.7-2.9 2.9c.2.6.4 1.2.5 1.8l4.7-4.7 2.6-2.5zM19.3 427.7L30.9 416l.2-.2c-.1-.7-.1-1.5-.2-2.2l-2.4 2.4-9.3 9.3-2.1 2.1c.1.7.2 1.4.2 2.1l2-1.8zM61.3 472l-4.7 4.7-14 14-4.7 4.7-5.4 5.4.6 1.8 4.9-4.9 7-7L56.6 479l7-7 11.7-11.7 2.7-2.7c-.1-.6-.3-1.3-.4-1.9l-2.3 2.3-14 14zM37.9 458l-13.3 13.3c.1.6.3 1.3.4 1.9l1.2-1.2 11.7-11.7 7-7 4.7-4.7h-2.3l-4.7 4.7-4.7 4.7zM30.9 434.7l2-2c-.1-.7-.2-1.4-.2-2.1l-4.1 4.1-9.2 9.2c.1.7.2 1.3.3 2l11.2-11.2zM19.3 439.4l-.5.5c.1.7.2 1.4.3 2l.2-.2 7-7 6.2-6.2c-.1-.7-.2-1.4-.2-2.1l-8.3 8.3-4.7 4.7zM56.6 507.1l16.3-16.3 2.3-2.3 8.5-8.5c-.2-.6-.4-1.2-.5-1.8l-7.9 7.9-4.7 4.7-14 14-4.7 4.7-12.3 12.3c.2.6.4 1.1.6 1.7l14-14 2.4-2.4zM19.3 432.4l12.3-12.3c-.1-.7-.1-1.4-.2-2.1l-12.1 12-1.6 1.6.3 2.1 1.3-1.3zM21.4 455.9c.1.7.2 1.3.4 2l4.5-4.5 8.4-8.4c-.1-.7-.2-1.3-.3-2L24 453.4l-2.6 2.5zM33.2 434.8L20 448c.1.7.2 1.3.3 2l13.1-13.1c0-.7-.1-1.4-.2-2.1zM37.9 451l2.4-2.4H38l-4.7 4.7L23 463.6c.1.6.3 1.3.4 1.9l12.2-12.2 2.3-2.3zM75.3 544.4l16.3-16.3 2.3-2.3 4.8-4.8c-.2-.5-.5-1.1-.7-1.6l-4.1 4.1-4.7 4.7-14 14-4.7 4.7-14 14c.3.5.5 1 .8 1.5l15.6-15.6 2.4-2.4zM98.6 565.4l-4.7 4.7-8.4 8.4h2.3l6.1-6.1 7-7 11.7-11.7 1.7-1.7c-.3-.5-.6-1-.8-1.5l-.9.9-14 14zM75.3 495.4l-14 14-4.7 4.7-14 14-.4.4c.2.6.4 1.1.7 1.7l2.1-2.1 11.7-11.7 7-7 11.7-11.7 7-7 3.7-3.7-.6-1.8-5.4 5.4-4.8 4.8zM93.9 551.4l-14 14-4.7 4.7-8.4 8.4h2.3l6.1-6.1 7-7 11.7-11.7 7-7 6.9-6.9c-.3-.5-.5-1-.8-1.5l-8.4 8.4-4.7 4.7zM112.6 563.1l5.2-5.2-.9-1.5-4.3 4.3-4.7 4.7-13.1 13.1h2.3l13.1-13.1 2.4-2.3zM112.6 570.1l-8.4 8.4h2.3l6.1-6.1 7-7 1.7-1.7-.9-1.5-3.1 3.1-4.7 4.8zM75.3 563.1l16.3-16.3 2.3-2.3 10.7-10.7c-.3-.5-.5-1-.8-1.6l-10 10-4.7 4.7-14 14-4.7 4.7-7.6 7.6c.3.5.5 1 .8 1.5l9.1-9.2 2.6-2.4zM93.9 563.1l16.3-16.3.8-.8c-.3-.5-.5-1-.8-1.5l-2.3 2.3-14 14-4.7 4.7-13.1 13.1h2.3l13.1-13.1 2.4-2.4zM93.9 532.7l-14 14-4.7 4.7-14 14-1.5 1.5c.3.5.5 1 .8 1.5l3.1-3.1 11.7-11.7 7-7L94 535.1l7-7 .7-.7c-.2-.5-.5-1.1-.7-1.6l-2.3 2.3-4.8 4.6zM56.6 544.4l16.3-16.3 2.3-2.3 16.3-16.3 1.7-1.7c-.2-.6-.4-1.1-.6-1.7l-3.4 3.3-14 14-4.7 4.7-14 14-4.7 4.7-1.4 1.4c.2.5.5 1.1.7 1.6l3-3 2.5-2.4zM75.3 514.1l-14 14-4.7 4.7-8.9 8.9c.2.5.5 1.1.7 1.6l8.2-8.2 7-7 11.7-11.7 7-7 8.4-8.4c-.2-.6-.4-1.1-.6-1.7L80 509.4l-4.7 4.7zM79.9 528.1l-4.7 4.7-14 14-4.7 4.7-3.1 3.1c.2.5.5 1 .8 1.6l2.3-2.3 7-7 11.7-11.7 7-7 11.7-11.7 2-2c-.2-.5-.5-1.1-.7-1.7l-1.3 1.3-14 14zM126.8 572.2c-.3-.5-.6-.9-.9-1.4l-7.6 7.6h2.3l6.2-6.2z"/>
    </g>
    <g>
      <path class="st0" d="M770 305.8l16.3-16.3 2.3-2.3 6.7-6.7c-.2-.6-.3-1.2-.5-1.8l-6.3 6.3-4.7 4.7-14 14-4.7 4.7-7.1 7.1h2.3l7.1-7.1 2.6-2.6zM774.7 289.4l-4.7 4.7-14 14-4.7 4.7-2.4 2.4h2.3l.1-.1 7-7 11.7-11.7 7-7 11.7-11.7 4.7-4.7c-.2-.6-.3-1.2-.5-1.8l-4.2 4.2-14 14zM770 301.1l11.7-11.7 7-7 5.8-5.8c-.2-.6-.3-1.2-.5-1.8l-5.2 5.2-9.3 9.3-9.3 9.3-9.3 9.3-7.1 7.1h2.3l7.1-7.1 6.8-6.8zM751.4 305.8l16.3-16.3 2.3-2.3 16.3-16.3 2.3-2.3 2.6-2.6c-.2-.6-.4-1.2-.5-1.8l-2.1 2.1-4.7 4.7-14 14-4.7 4.7-14 14-4.7 4.7-1 1c.1.6.3 1.3.4 1.9l2.9-2.9 2.6-2.6zM763 289.4l7-7 11.7-11.7 7-7 1.5-1.5-.6-1.8-.9.9-9.3 9.3-9.3 9.3-9.3 9.3-9.3 9.3-6.5 6.5c.2.6.3 1.3.4 1.9l6.1-6.1 11.5-11.4zM770 275.4l-14 14-4.7 4.7-7.4 7.4c.2.6.3 1.2.4 1.9l7-7 7-7 11.7-11.7 7-7 11.7-11.7.4-.4-.6-1.8-13.8 13.8-4.7 4.8zM788.7 301.1l9.5-9.5c-.2-.6-.3-1.3-.4-1.9l-9.1 9.1-9.3 9.3-7.1 7.1h2.3l7.1-7.1 7-7zM788.7 312.8l-2.4 2.4h1.6c0 .2.1.4.1.6l.7-.7 7-7 5-5c-.1-.7-.3-1.3-.4-1.9l-7 7-4.6 4.6zM801.5 307c-.1-.7-.2-1.3-.4-2l-3.1 3.1-9.3 9.3-.4.4c.1.7.2 1.3.3 2l.1-.1 11.7-11.7 1.1-1zM770 238.1l-14 14-4.7 4.7-14 14-1.8 1.8.6 1.8 3.5-3.5 11.7-11.7 7-7 11.7-11.7 7-7 2-2c-.2-.5-.5-1.1-.7-1.6l-3.7 3.7-4.6 4.5zM770 261.4l-9.3 9.3-9.3 9.3-9.3 9.3-1 1c.2.6.3 1.2.5 1.8l2.8-2.8 7-7 11.7-11.7 7-7 11.7-11.7 3.8-3.8c-.2-.6-.4-1.1-.6-1.7l-5.5 5.5-9.5 9.5zM788.7 305.8l10.4-10.4c-.1-.6-.3-1.3-.4-1.9l-10 10-4.7 4.7-7.1 7.1h2.3l7.1-7.1 2.4-2.4zM788.7 294.1l-14 14-4.7 4.7-2.4 2.4h2.3l.1-.1 7-7 11.7-11.7 7-7 1.6-1.6c-.2-.6-.3-1.2-.5-1.9l-3.5 3.5-4.6 4.7zM770 310.4l2.3-2.3 16.3-16.3 2.3-2.3 5.4-5.4c-.2-.6-.3-1.2-.5-1.9l-33 33h2.3l4.9-4.8zM801.9 308.9L789 321.8c.1.7.2 1.4.3 2l13-13c-.2-.6-.3-1.2-.4-1.9zM735 270.8l16.4-16.4 2.3-2.3 16.3-16.3 2.3-2.3 5.3-5.3c-.2-.4-.4-.9-.6-1.3-.1-.1-.1-.2-.1-.3l-42.6 42.6c.3.4.5 1 .7 1.6zM739.5 284.9l11.9-11.9 2.3-2.3 16.3-16.3 2.3-2.3 10.6-10.6c-.2-.6-.4-1.1-.6-1.7L739 283.2c.2.5.3 1.1.5 1.7zM730 257.1l2.7-2.7 2.3-2.3 16.3-16.3 2.3-2.3 16.3-16.3 1.9-2c-.2-.5-.5-1.1-.7-1.6l-41.9 41.9c.4.5.6 1.1.8 1.6zM724.5 243.9l8.2-8.2 2.3-2.3 16.3-16.3 2.3-2.3 12.2-12.2c-.3-.5-.5-1-.8-1.5l-41.3 41.3c.3.5.6 1 .8 1.5zM751.4 287.1l16.3-16.3 2.3-2.3 16.3-16.3.4-.4c-.2-.6-.4-1.2-.6-1.7l-2.1 2.1-14 14-4.7 4.7-14 14-4.7 4.7-4.6 4.6c.2.6.3 1.2.5 1.8l6.5-6.5 2.4-2.4zM718.6 231.2l14.1-14.1 2.3-2.3 16.3-16.3 2.3-2.3 5.8-5.8c-.3-.5-.6-1-.8-1.5l-40.8 40.8c.3.5.5 1 .8 1.5zM751.4 291.8l2.3-2.3 16.3-16.3 2.3-2.3 15.6-15.6c-.2-.6-.4-1.2-.6-1.7L743 297.8c.2.6.3 1.2.4 1.9l8-7.9zM770 256.7l-14 14-4.7 4.7-11.3 11.3c.2.6.4 1.2.5 1.8l10.8-10.8 7-7L770 259l7-7 7.2-7.2c-.2-.6-.4-1.1-.6-1.7l-8.9 8.9-4.7 4.7zM751.4 268.4l16.3-16.3 2.3-2.3 11.7-11.7c-.2-.6-.4-1.1-.7-1.7l-11 11-4.7 4.7-14 14-4.7 4.7-8.8 8.8.6 1.8 10.6-10.6 2.4-2.4zM788.7 310.4l2.3-2.3 8.9-8.9c-.1-.6-.3-1.3-.4-1.9l-17.9 17.9h2.3l4.8-4.8zM751.4 310.4l2.3-2.3 16.3-16.3 2.3-2.3 16.3-16.3 2.3-2.3 1.4-1.4c-.2-.6-.4-1.2-.5-1.8L746.5 313c.1.6.3 1.3.4 1.9l4.5-4.5zM790.1 330l.3 2.1 5.3-5.3 7.9-7.9c-.1-.7-.2-1.3-.3-2l-9.9 9.9-3.3 3.2zM698.7 188.1l-3.2 3.2c.3.5.6.9.9 1.4l4.6-4.6h-2.3zM714 193.7l5.7-5.7h-2.3l-3.3 3.4-4.7 4.7-6.5 6.5.9 1.5 8-8 2.2-2.4zM701.1 199.7c.3.5.6 1 .9 1.4l5.1-5.1 7-7 1-1h-2.3l-8 8-3.7 3.7zM699.2 196.8c.3.5.6 1 .9 1.4l2.2-2.2 8-8H708l-8 8-.8.8zM714 205.4l-6 6c.3.5.6 1 .8 1.5l5.1-5.1 11.7-11.7 7-7 1-1h-2.3l-8 8-9.3 9.3zM714 212.4l16.3-16.3 2.3-2.3 5.7-5.7H736l-3.3 3.4-4.7 4.7-14 14-4.3 4.3c.3.5.6 1 .8 1.5l1.1-1.1 2.4-2.5zM712.2 218.9l1.8-1.8 2.3-2.3 16.3-16.3 2.3-2.3 8-8h-2.3l-29.3 29.3c.4.3.7.9.9 1.4zM798 382.8l-4.6 4.6v2.4l7-7 7-7 1.1-1.1v-2.3l-1.1 1.1-9.4 9.3zM760.7 252.1l-9.3 9.3-9.3 9.3-5.3 5.3.6 1.8 7-7 7-7 11.7-11.7 7-7 10.4-10.4c-.2-.6-.4-1.1-.7-1.7l-.4.4-9.3 9.3-9.4 9.4zM795.7 382.8l11.7-11.7 1-1c0-.8 0-1.5-.1-2.3l-.9 1-13.9 13.9v2.4l2.2-2.3zM804.2 322.9c-.1-.7-.2-1.3-.3-2l-5.9 5.9-7.4 7.4c.1.7.2 1.4.2 2.1l9.5-9.5 3.9-3.9zM714 200.7l-7.7 7.7.9 1.5 6.8-6.8 7-7 8-8h-2.3l-8 8-4.7 4.6zM694 188.1l-.4.4c.3.5.6.9.9 1.4l.8-.8 1-1H694zM807.4 380.4l1.2-1.2v-2.3l-1.2 1.2-4.7 4.7-9.3 9.3c0 .8-.1 1.6-.1 2.4l11.8-11.8 2.3-2.3zM760.7 233.4l-9.3 9.3-9.3 9.3-9.3 9.3-.8.8c.2.6.4 1.1.6 1.7l.1-.1 11.7-11.7 7-7 11.7-11.7 7-7 4.9-4.9c-.2-.5-.5-1.1-.7-1.6l-4.1 4.1-9.5 9.5zM751.4 219.4l-14 14-4.7 4.7-7.5 7.5c.2.5.5 1.1.7 1.6l6.8-6.8 7-7 11.7-11.7 7-7 9.1-9.1c-.3-.5-.5-1-.8-1.6L756 214.7l-4.6 4.7zM732.7 249.7l16.3-16.3 2.3-2.3 16.3-16.3 2.3-2.3.5-.5c-.2-.5-.5-1-.8-1.6l-4.4 4.4-14 14-4.7 4.7-14 14-4.7 4.7h-.1c.2.5.5 1.1.7 1.7l1.7-1.7 2.6-2.5zM751.4 224.1l-9.3 9.3-9.3 9.3-6.1 6.1c.2.5.4 1.1.7 1.7l5.4-5.4 11.7-11.7 7-7 11.7-11.7 6-6c-.2-.5-.5-1-.8-1.6l-7.5 7.5-9.5 9.5zM751.4 249.7l16.3-16.3 2.3-2.3 6.3-6.3c-.2-.5-.5-1.1-.7-1.6l-5.6 5.6-4.7 4.7-14 14-4.7 4.7-13.5 13.5c.2.6.4 1.2.6 1.7l15.2-15.3 2.5-2.4zM732.7 205.4l-9.3 9.3-8.7 8.7c.3.5.5 1 .8 1.5l10.2-10.2 7-7 11.7-11.7 7-7 1-1h-2.3l-8 8-9.4 9.4zM756 233.4l-4.7 4.7-14 14-4.7 4.7-2.1 2.1c.2.6.4 1.1.6 1.7l1.4-1.4 7-7 11.7-11.7 7-7 11.7-11.7 3.4-3.4c-.2-.5-.5-1.1-.7-1.6l-2.7 2.7-13.9 13.9zM732.7 200.7l-14 14-4.7 4.7-1 1c.3.5.5 1 .8 1.5l.2-.2 7-7 11.7-11.7 7-7 8-8h-2.3l-8 8-4.7 4.7zM751.4 200.7l-14 14-4.7 4.7-13.3 13.3c.2.5.5 1.1.7 1.6l.9-.9 11.7-11.7 7-7 11.7-11.7 7-7 2.8-2.8c-.3-.5-.6-1-.8-1.5l-4.3 4.3-4.7 4.7zM732.7 212.4l16.3-16.3 2.3-2.3 5.7-5.7h-2.3l-3.3 3.4-4.7 4.7-14 14-4.7 4.7-11.8 11.8c.3.5.5 1 .8 1.6l13.3-13.3 2.4-2.6zM732.7 231.1l16.3-16.3 2.3-2.3 13-13c-.3-.5-.5-1-.8-1.5l-12.2 12.2-4.7 4.7-14 14-4.7 4.7-5.7 5.7c.2.5.5 1.1.7 1.6l7.3-7.3 2.5-2.5zM751.4 205.4l-9.3 9.3-9.3 9.3-9.3 9.3-2.5 2.5c.2.5.5 1.1.7 1.6l4.1-4.1 7-7 11.7-11.7 7-7 11.4-11.4c-.3-.5-.5-1-.8-1.5l-1.2 1.2-9.5 9.5zM791.8 419.3l15.6-15.6.7-.7c0-.8.1-1.6.1-2.4L792 416.8c0 .8-.1 1.7-.2 2.5zM774.7 513.4l-4.7 4.7-14 14-4.7 4.7-14 14-4.7 4.7-14 14-4.7 4.7-4.3 4.3h2.3l2-2 7-7 11.7-11.7 7-7 11.7-11.7 7-7 11.7-11.7 7-7 11.7-11.7 2.6-2.6c.3-1.1.7-2.2 1-3.3l-3.6 3.6-14 14zM751.7 578.5h2.3l7.3-7.3c.9-1.6 1.7-3.3 2.6-4.9l-3.2 3.2-9 9zM779.4 513.4l-9.3 9.3-9.3 9.3-9.3 9.3-9.3 9.3-9.3 9.3-9.3 9.3-9 9h2.3l9-9 7-7 11.7-11.7 7-7 11.7-11.7 7-7 11.7-11.7 7-7 .4-.4c.4-1.1.7-2.3 1.1-3.4l-1.5 1.5-9.6 9.6zM770 536.8l-14 14-4.7 4.7-14 14-4.7 4.7-4.3 4.3h2.3l2-2 7-7 11.7-11.7 7-7 11.7-11.7 7-7 4.3-4.3c.5-1.3 1-2.5 1.5-3.8l-8.1 8.1-4.7 4.7zM784 513.4l-14 14-4.7 4.7-14 14-4.7 4.7-14 14-4.7 4.7-9 9h2.3l9-9 2.3-2.3 16.3-16.3 2.3-2.3 16.3-16.3 2.3-2.3 16.3-16.3.4-.4c.4-1.2.8-2.4 1.2-3.5l-3.6 3.6zM751.4 567.1l16.3-16.3 2.3-2.3 4.7-4.7c.6-1.4 1.2-2.7 1.8-4.1l-6.4 6.5-4.7 4.7-14 14-4.7 4.7-9 9h2.3l9-9 2.4-2.5zM735 494.8l16.3-16.3 2.3-2.3 16.3-16.3 2.3-2.3 8.8-8.8h-2.3l-42.9 42.9c-.4 1.2-.8 2.4-1.2 3.5l.4-.4zM714 548.4l16.3-16.3 2.3-2.3 16.3-16.3 2.3-2.3 16.3-16.3 2.3-2.3 16.3-16.3 2.3-2.3 12.1-12c.2-1 .4-1.9.6-2.9l-12.6 12.6-4.7 4.7-14 14-4.7 4.7-14 14-4.7 4.7-14 14-4.7 4.7-14 14-4.1 4.1c-1 1.8-2 3.6-3.1 5.4l4.9-4.9 2.6-2.7zM788.7 462.1l-14 14-4.7 4.7-14 14-4.7 4.7-14 14-4.7 4.7-12.6 12.6c-.7 1.5-1.5 3-2.2 4.6l3.3-3.3 11.7-11.7 7-7 11.7-11.7 7-7 11.7-11.7 7-7 11.7-11.7 7-7 7.2-7.2c.2-.9.3-1.9.5-2.8l-10 10-4.9 4.8zM714 567.1l16.3-16.3 2.3-2.3 16.3-16.3 2.3-2.3 16.3-16.3 2.3-2.3 16.3-16.3 2.3-2.3 6.3-6.3c.3-1 .6-2.1.8-3.2l-7.2 7.2-4.7 4.7-14 14-4.7 4.7-14 14-4.7 4.7-14 14-4.7 4.7-14 14-4.7 4.7-9 9h2.3l9-9 2.9-2.8zM788.7 466.8l-9.3 9.3-9.3 9.3-9.3 9.3-9.3 9.3-9.3 9.3-9.3 9.3-9.3 9.3-8 8c-.8 1.7-1.7 3.3-2.6 4.9l1.2-1.2 11.7-11.7 7-7 11.7-11.7 7-7 11.7-11.7 7-7 11.7-11.7 7-7 11.7-11.7 1.5-1.5c.2-1 .3-1.9.5-2.8l-4.3 4.3-9.7 9.7zM693.3 578.5l2-2 7-7 11.7-11.7 7-7 11.7-11.7 7-7 11.7-11.7 7-7 11.7-11.7 7-7 11.7-11.7 7-7 2.4-2.5c.2-1 .5-2 .7-3l-5.5 5.5-4.7 4.7-14 14-4.7 4.7-14 14-4.7 4.7-14 14-4.7 4.7-14 14-4.7 4.7-14 14-4.7 4.7-.3.3c-.9 1.4-1.8 2.7-2.8 4.1l1.2-.1zM779.4 494.8l-9.3 9.3-9.3 9.3-9.3 9.3-9.3 9.3-9.3 9.3-9.3 9.3-9.3 9.3-9.3 9.3-9 9h2.3l9-9 7-7 11.7-11.7 7-7 11.7-11.7 7-7 11.7-11.7 7-7 11.7-11.7 7-7 8-8c.3-1 .5-2.1.8-3.1l-8.7 8.7-9.8 9.8zM770 541.4l-9.3 9.3-9.3 9.3-9.3 9.3-9 9h2.3l9-9 7-7 11.7-11.7 7-7 8.2-8.2c.6-1.3 1.1-2.6 1.6-4l-.4.4-9.5 9.6zM758.5 576.3l-2.2 2.2h1c.4-.8.8-1.5 1.2-2.2zM789.3 440.5l1.7-1.7 15.5-15.5c.1-.9.2-1.7.2-2.6l-17.1 17.1c0 .9-.2 1.8-.3 2.7zM793.5 380.3l13.9-13.9.9-.9c0-.8-.1-1.5-.1-2.2L793.4 378c0 .8.1 1.6.1 2.3zM793 362.2l14.2-14.2c-.1-.7-.1-1.4-.2-2.1L792.9 360c0 .7 0 1.4.1 2.2zM722.1 526.4l10.6-10.6 2.3-2.3 16.3-16.3 2.3-2.3 16.3-16.3 2.3-2.3 16.3-16.3 2.3-2.3 12.8-12.8c.1-.9.3-1.8.4-2.8l-80 80.1c-.7 1.4-1.3 2.8-1.9 4.2zM791.7 344.7l13.6-13.6-.3-2.1-13.5 13.5c.1.8.2 1.5.2 2.2zM793.1 399.3l14.2-14.2 1.2-1.2v-1.4-.9L793.1 397c.1.7.1 1.5 0 2.3zM751.4 574.1l-4.3 4.3h2.3l2-2 7-7 8-8c.8-1.5 1.5-3.1 2.3-4.6L756 569.4l-4.6 4.7zM744.7 578.5l6.7-6.7 2.3-2.3 16.3-16.3.7-.7c.7-1.5 1.4-2.9 2-4.3l-30.4 30.5 2.4-.2zM707.3 578.5l6.7-6.7 2.3-2.3 16.3-16.3 2.3-2.3 16.3-16.3 2.3-2.3 16.3-16.3 2.3-2.3 16.3-16.3 2.3-2.3 2.2-2.2c.3-1.1.6-2.2.9-3.2L705 578.5h2.3zM699.5 567.6l14.5-14.5 2.3-2.3 16.3-16.3 2.3-2.3 16.3-16.3 2.3-2.3 16.3-16.3 2.3-2.3 16.3-16.3 2.3-2.3 8.5-8.5.6-3-96.8 96.8c-.9 1.8-2.2 3.9-3.5 5.9zM726 578.5l6.7-6.7 2.3-2.3 16.3-16.3 2.3-2.3 16.3-16.3 2.3-2.3 11.8-11.8c.4-1.2.9-2.4 1.3-3.7l-61.8 61.8 2.5-.1zM806.7 343.7c-.1-.7-.1-1.4-.2-2.1l-3.8 3.8-10.1 10.1c.1.7.1 1.5.1 2.2l12.3-12.3 1.7-1.7zM789.8 328l1.2-1.2 11.9-11.9c-.1-.7-.2-1.3-.3-2L789.5 326c.1.6.2 1.3.3 2zM804.5 325l-1.8 1.8-11.6 11.6c.1.7.2 1.4.2 2.1l13.5-13.5c-.1-.7-.2-1.4-.3-2zM791.9 346.9c.1.7.1 1.4.2 2.1l3.6-3.6 10.1-10.1c-.1-.7-.2-1.4-.2-2.1l-12.2 12.2-1.5 1.5zM788.7 448.1l-9.3 9.3-9.3 9.3-9.3 9.3-9.3 9.3-9.3 9.3-9.3 9.3-2.1 2.1c-.5 1.3-1 2.6-1.5 3.8l3.6-3.6 11.7-11.7 7-7 11.7-11.7 7-7 11.7-11.7 7-7 11.7-11.7 5-5 .3-2.7-7.6 7.6-9.7 9.8zM774.7 457.4l-4.7 4.7-14 14-4.7 4.7-14 14-4 4c-.4 1.2-.9 2.5-1.3 3.7l.7-.7 7-7 11.7-11.7 7-7 11.7-11.7 7-7 8.8-8.8h-2.3l-8.9 8.8zM732.7 511.1l16.3-16.3 2.3-2.3 16.3-16.3 2.3-2.3 16.3-16.3 2.3-2.3 15.9-15.9c.1-.9.3-1.8.4-2.7l-2.3 2.3-14 14-4.7 4.7-14 14-4.7 4.7-14 14-4.7 4.7-14 14-4.7 4.7-.5.5c-.6 1.3-1.1 2.7-1.7 4l4.6-4.6 2.6-2.6zM751.4 459.8l2.3-2.3 8.8-8.8h-2.3l-16.6 16.6c-.3 1-.5 2.1-.8 3.1l8.6-8.6zM792.3 351.2c.1.7.1 1.5.2 2.2l7.9-7.9 5.9-5.9c-.1-.7-.1-1.4-.2-2.1l-8.1 8-5.7 5.7zM798 364.1l-4.8 4.8c0 .8.1 1.5.1 2.3l7.1-7.1 7-7 .4-.4c-.1-.7-.1-1.5-.2-2.2l-.2.2-9.4 9.4zM705.5 207l8.5-8.5 2.3-2.3 8-8H722l-17.4 17.5c.3.3.6.8.9 1.3zM698.3 195.4l7.4-7.4h-2.3l-6 6c.3.5.6.9.9 1.4zM788.9 443.2c-.1.9-.3 1.8-.4 2.8l.2-.2 7-7 10.3-10.3c.1-.9.2-1.8.3-2.6l-12.9 12.9-4.5 4.4zM793.1 364.4c0 .8.1 1.5.1 2.2l2.5-2.5 11.7-11.7.1-.1c-.1-.7-.1-1.4-.2-2.2L793.4 364l-.3.4zM807.4 361.8l.7-.7c0-.7-.1-1.5-.1-2.2l-.5.5-4.7 4.7-9.3 9.3v2.3l11.6-11.6 2.3-2.3zM751.4 455.1l6.4-6.4h-2.3l-4.1 4.1-4.7 4.7-1.7 1.7c-.2 1-.5 2-.7 3l4.8-4.8 2.3-2.3zM753.1 448.7h-2.3l-4.5 4.5-.6 3 5.7-5.7 1.7-1.8zM748.5 448.7h-1.3c-.1.5-.2 1.1-.3 1.6l1.6-1.6zM807.4 399.1l.9-.9c0-.8.1-1.6.1-2.4l-1 1-4.7 4.7-10.3 10.3c-.1.8-.1 1.7-.2 2.5l12.8-12.8 2.4-2.4zM793.4 401.4l-.4.4c0 .8-.1 1.6-.1 2.5l2.8-2.8 11.7-11.7 1.2-1.2v-2.4l-1.2 1.2-14 14zM798 401.4l-5.3 5.3c-.1.8-.1 1.7-.2 2.5l7.8-7.8 7-7 1.1-1.1c0-.8 0-1.6.1-2.4l-1.1 1.1-9.4 9.4zM751.4 462.1l-9.5 9.5c-.3 1.1-.6 2.1-.9 3.2l10.3-10.3 7-7 8.8-8.8h-2.3l-8.8 8.8-4.6 4.6zM751.4 469.1l11.7-11.7 7-7 1.8-1.8h-2.3l-8.8 8.8-9.3 9.3-9.3 9.3-1.9 1.9c-.3 1.1-.7 2.2-1 3.3l5.2-5.2 6.9-6.9zM798 420.1l-7 7c-.1.9-.2 1.8-.3 2.6l9.7-9.7 7-7 .1-.1c.1-.8.1-1.7.2-2.5l-.2.2-9.5 9.5zM751.4 473.8l16.3-16.3 2.3-2.3 6.4-6.4h-2.3l-4.1 4.1-4.7 4.7-14 14-4.7 4.7-8.6 8.6c-.3 1.1-.7 2.3-1.1 3.4l12-12 2.5-2.5zM807 418.1c.1-.8.1-1.7.2-2.5l-4.5 4.5-12.3 12.3c-.1.9-.2 1.8-.4 2.7l15-15 2-2zM793.4 420.1l-1.8 1.8c-.1.9-.2 1.7-.2 2.6l4.4-4.4 11.7-11.7.4-.4c.1-.8.1-1.6.1-2.5l-.6.6-14 14z"/>
    </g>
    <g>
      <path class="st0" d="M301.6 58.8l-.6-1.9-1.5.5.7 1.9zM307.8 56.8l-.6-1.9-1.5.5.6 1.9zM409.8 40.7v-2h-1.5v2zM326.4 51.4l-.4-1.9-1.5.4.5 1.9zM332.7 49.9l-.4-2-1.5.4.5 1.9zM320.2 53.1l-.5-1.9-1.5.4.5 1.9zM271.5 70.7l-.8-1.8-1.4.6.9 1.8zM265.7 73.4l-.9-1.8-1.3.6.8 1.8zM277.4 68.1l-.8-1.9-1.3.7.8 1.8zM295.5 61l-.7-1.9-1.4.5.7 1.9zM289.4 63.2l-.7-1.8-1.4.5.7 1.9zM283.4 65.6l-.8-1.8-1.3.5.7 1.9zM259.8 76.2l-.8-1.8-1.4.7.9 1.8zM339.1 48.4l-.5-1.9-1.4.3.4 2zM383.9 41.8l-.2-2-1.5.2.2 2zM390.4 41.4l-.2-2-1.5.1.2 2zM403.3 40.8l-.1-2-1.5.1.1 2zM396.8 41v-1.9h-1.5v2zM377.4 42.4l-.1-2-1.5.2.2 2zM345.4 47.1l-.4-1.9-1.5.3.4 1.9zM371 43.1l-.2-2-1.5.2.2 2zM351.8 45.9l-.4-1.9-1.5.2.4 2zM364.6 43.9l-.3-1.9-1.5.2.3 2zM358.2 44.9l-.3-2-1.5.3.3 1.9zM314 54.9l-.6-1.9-1.5.4.6 1.9zM189.9 122.4l-1.3-1.5-1.2 1 1.4 1.5zM166.3 144.6l-1.5-1.4-1 1.1 1.4 1.4zM175.5 135.5l-1.4-1.5-1.1 1.1 1.4 1.4zM161.8 149.3l-1.5-1.3-1 1 1.5 1.4zM185 126.7l-1.3-1.5-1.1 1 1.3 1.5z"/>
      <path transform="rotate(-42.743 178.97 130.833)" class="st0" d="M178.2 129.8h1.5v2h-1.5z"/>
      <path class="st0" d="M170.8 140l-1.4-1.4-1 1 1.4 1.5zM157.4 154.1l-1.4-1.4-1 1.2 1.4 1.3zM136.9 179.2l-1.6-1.2-.9 1.2 1.6 1.2zM140.8 174l-1.5-1.2-1 1.2 1.6 1.2zM149 163.9l-1.6-1.3-.9 1.2 1.5 1.2zM153.2 158.9l-1.6-1.3-.9 1.2 1.5 1.3zM254.1 79.1l-.9-1.7-1.4.7 1 1.7zM231.6 91.9l-1-1.7-1.3.8 1.1 1.7zM237.2 88.6l-1.1-1.7-1.3.7 1.1 1.7z"/>
      <path transform="rotate(-28.641 247.24 81.674)" class="st0" d="M246.5 80.7h1.5v2h-1.5z"/>
      <path class="st0" d="M242.7 85.3l-.9-1.7-1.3.7 1 1.8zM226.2 95.4l-1.1-1.7-1.3.8 1.1 1.7zM199.9 114.2l-1.3-1.5-1.1.9 1.2 1.6zM194.9 118.3l-1.3-1.5-1.2.9 1.3 1.5zM205 110.3l-1.2-1.6-1.2.9 1.2 1.6zM210.2 106.4l-1.2-1.6-1.2.9 1.2 1.6zM220.8 99l-1.1-1.7-1.3.8 1.1 1.7zM215.5 102.6l-1.2-1.6-1.2.9 1.1 1.6z"/>
      <path transform="rotate(-51.259 143.611 168.872)" class="st0" d="M142.9 167.9h1.5v2h-1.5z"/>
      <path transform="rotate(-52.316 620.944 111.052)" class="st0" d="M619.9 110.3h2v1.5h-2z"/>
      <path class="st0" d="M616.9 106.7l-1.2-.8-1.2 1.5 1.2 1zM572.9 78.8l-1.4-.7-.9 1.8 1.3.7z"/>
      <path transform="rotate(-51.239 626.028 115.008)" class="st0" d="M625.1 114.3h2v1.5h-2z"/>
      <path class="st0" d="M632.3 118.9l-1.2-1-1.3 1.5 1.2 1zM606.3 99.1l-1.2-.8-1.1 1.6 1.2.9zM578.6 81.9l-1.3-.7-1 1.7 1.3.8zM637.2 123.1l-1.1-1-1.3 1.5 1.1 1zM584.3 85.2l-1.3-.8-1 1.7 1.3.8z"/>
      <path transform="rotate(-56.667 599.72 95.885)" class="st0" d="M598.7 95.1h2v1.5h-2z"/>
      <path class="st0" d="M589.9 88.5l-1.3-.8-1 1.7 1.2.8zM595.4 91.9l-1.2-.8-1.1 1.7 1.3.8zM611.7 102.9l-1.3-.9-1.1 1.6 1.2.9zM682.1 170.3l-1-1.2-1.5 1.2.9 1.2zM678 165.2l-1-1.2-1.5 1.3.9 1.1zM673.8 160.2l-1-1.2-1.5 1.3 1 1.2zM686 175.4l-.9-1.2-1.6 1.2.9 1.2zM669.6 155.2l-1-1.1-1.5 1.3 1 1.2zM642.1 127.4l-1.1-1-1.3 1.5 1.1 1zM665.2 150.4l-1-1.1-1.5 1.3 1 1.2zM651.6 136.4l-1.1-1.1-1.4 1.5 1.1 1zM646.9 131.9l-1.1-1.1-1.4 1.5 1.1 1zM656.2 141l-1-1.1-1.4 1.4 1 1.1zM660.7 145.6l-1-1-1.4 1.3 1 1.1zM481 45.7l-1.5-.3-.4 2 1.5.3zM468.2 43.3l-1.5-.2-.3 2 1.4.2zM474.6 44.5l-1.5-.3-.3 2 1.4.2zM461.7 42.3l-1.5-.2-.2 2 1.4.2zM487.4 47.1l-1.5-.3-.4 1.9 1.4.4zM455.3 41.5l-1.5-.2-.3 2 1.5.1zM416.3 38.8l-1.5-.1v2l1.5.1zM429.3 39.2l-1.5-.1-.1 2 1.5.1zM493.7 48.6l-1.5-.4-.4 2 1.4.3zM422.8 38.9h-1.5l-.1 2h1.5zM435.8 39.6l-1.5-.1-.1 2 1.5.1zM448.8 40.7l-1.5-.1-.2 1.9 1.5.2zM442.3 40.1l-1.5-.2-.2 2 1.5.2z"/>
      <path transform="rotate(-70.884 523.964 58.524)" class="st0" d="M523 57.8h2v1.5h-2z"/>
      <path class="st0" d="M543.3 64.9l-1.4-.6-.7 1.8 1.4.6zM537.3 62.4l-1.4-.5-.8 1.8 1.4.6zM549.3 67.4l-1.3-.6-.8 1.9 1.3.5zM555.3 70.1l-1.4-.6-.8 1.8 1.4.6zM500 50.2l-1.4-.4-.5 2 1.4.3zM561.2 72.9l-1.3-.7-.9 1.8 1.3.7zM512.6 53.8l-1.5-.5-.6 2 1.5.4zM506.3 51.9l-1.4-.4-.6 1.9 1.5.4zM531.2 60.1l-1.5-.5-.6 1.8 1.4.5zM567.1 75.8l-1.4-.7-.9 1.8 1.4.7zM518.8 55.8l-1.4-.5-.6 1.9 1.4.5zM338 718.2l1.4.4.5-2-1.5-.3zM523.7 705.4l.6 1.9 1.4-.5-.6-1.9zM535.8 700.9l.7 1.9 1.4-.6-.7-1.9zM529.8 703.2l.7 1.9 1.4-.6-.7-1.8zM517.5 707.4l.6 1.9 1.5-.4-.7-1.9zM505.1 711.2l.6 1.9 1.4-.4-.5-1.9z"/>
      <path transform="rotate(-17.04 512.313 710.131)" class="st0" d="M511.6 709.1h1.5v2h-1.5z"/>
      <path class="st0" d="M559.5 690.6l.9 1.8 1.3-.7-.9-1.8zM565.3 687.7l.9 1.8c.4-.2.9-.5 1.3-.7l-.9-1.8c-.4.3-.8.5-1.3.7z"/>
      <path transform="rotate(-14.821 499.809 713.736)" class="st0" d="M499 712.7h1.5v2H499z"/>
      <path class="st0" d="M553.7 693.3l.8 1.8 1.4-.6-.9-1.8zM547.8 696l.8 1.8 1.3-.6-.8-1.8z"/>
      <path transform="rotate(-22.508 542.88 699.131)" class="st0" d="M542.1 698.1h1.5v2h-1.5z"/>
      <path transform="rotate(-5.042 442.278 723.746) scale(.99997)" class="st0" d="M441.5 722.8h1.5v2h-1.5z"/>
      <path class="st0" d="M447.9 722.2l.2 2 1.5-.1-.2-2zM571 684.8l1 1.7 1.3-.7-.9-1.7zM428.5 723.8l.1 1.9h1.5l-.1-2zM454.4 721.5l.2 2 1.5-.2-.3-2zM492.6 714.5l.5 2 1.4-.4-.5-1.9zM435 723.4l.1 2 1.5-.1-.1-2z"/>
      <path transform="rotate(-12.638 487.233 716.784)" class="st0" d="M486.5 715.8h1.5v2h-1.5z"/>
      <path class="st0" d="M479.9 717.3l.4 2 1.5-.3-.4-2zM467.2 719.7l.3 1.9 1.5-.2-.3-2z"/>
      <path transform="rotate(-10.463 474.476 719.442)" class="st0" d="M473.7 718.5h1.5v2h-1.5z"/>
      <path class="st0" d="M653.9 623.4l1.4 1.4 1.1-1-1.4-1.5zM576.7 681.7l1 1.8 1.3-.8-1-1.7zM662.9 614l1.5 1.4 1-1.1-1.5-1.3z"/>
      <path transform="matrix(.9995 -.0312 .0312 .9995 -22.415 13.544)" class="st0" d="M422.1 724h1.5v2h-1.5z"/>
      <path class="st0" d="M644.6 632.4l1.4 1.5 1.1-1-1.4-1.5zM649.3 628l1.4 1.4 1.1-1.1-1.4-1.4zM667.2 609.2l1.5 1.4 1-1.1-1.5-1.4zM689.2 585.2zM683.7 589.2l1.6 1.2.9-1.2-1.6-1.2zM639.8 636.8l1.4 1.5 1.1-1-1.3-1.5zM679.7 594.3l1.6 1.3.9-1.2-1.5-1.2zM671.5 604.4l1.5 1.3 1-1.2-1.5-1.3z"/>
      <path transform="rotate(-50.625 676.901 599.444)" class="st0" d="M676.2 598.4h1.5v2h-1.5z"/>
      <path transform="rotate(-46.346 659.672 618.936)" class="st0" d="M658.9 617.9h1.5v2h-1.5z"/>
      <path class="st0" d="M593.4 671.8l1.1 1.7 1.3-.8-1.1-1.7zM604.2 664.8l1.2 1.6 1.2-.9-1.1-1.6zM598.9 668.3l1.1 1.7 1.2-.8-1.1-1.7z"/>
      <path transform="rotate(-30.072 583.522 678.973)" class="st0" d="M582.8 678h1.5v2h-1.5z"/>
      <path class="st0" d="M587.9 675.2l1.1 1.8 1.2-.8-1-1.7zM635 641.1l1.3 1.5 1.1-1-1.3-1.5z"/>
      <path transform="rotate(-38.739 626.26 649.607)" class="st0" d="M625.5 648.6h1.5v2h-1.5z"/>
      <path class="st0" d="M609.5 661l1.2 1.7 1.2-.9-1.1-1.6zM630.1 645.3l1.2 1.5 1.2-1-1.3-1.5zM614.8 657.2l1.2 1.7 1.2-.9-1.2-1.6zM619.9 653.3l1.3 1.6 1.1-.9-1.2-1.6z"/>
      <path transform="rotate(-8.31 461.737 721.475)" class="st0" d="M460.9 720.5h1.5v2h-1.5z"/>
      <path class="st0" d="M218.7 666.9l1.2.9 1.2-1.7-1.3-.8zM208 659.4l1.3.9 1.1-1.6-1.2-.9zM213.3 663.2l1.2.9 1.1-1.6-1.2-.9-1.1 1.6z"/>
      <path transform="rotate(-52.705 203.998 655.163)" class="st0" d="M203 654.4h2v1.5h-2z"/>
      <path class="st0" d="M192.6 647.3l1.2 1 1.2-1.5-1.1-1zM187.6 643.1c.4.3.8.7 1.1 1l1.3-1.5c-.4-.3-.8-.7-1.1-1l-1.3 1.5zM197.7 651.5l1.2.9 1.2-1.6-1.2-.9zM246.5 684l1.3.7 1-1.8-1.3-.7zM240.8 680.8c.4.2.9.5 1.3.8l1-1.7c-.4-.2-.9-.5-1.3-.7l-1 1.6zM224.1 670.5c.4.3.8.5 1.3.8l1.1-1.7c-.4-.3-.8-.5-1.2-.8l-1.2 1.7zM235.2 677.5l1.3.7 1-1.7-1.3-.7zM229.6 674.1l1.3.7 1.1-1.7-1.3-.7zM173.2 630l1.1 1 1.3-1.4-1-1.1zM155.2 611.3l.9 1 1.5-1.3-1-1.1zM146.6 601.3l1 1.2 1.5-1.3-.9-1.2zM415.6 724.1v2h1.5v-2zM182.7 638.8l1.2 1 1.3-1.5-1.1-1zM142.5 596.3l1 1.1 1.5-1.2-.9-1.2zM138.5 591.1l.9 1.2 1.6-1.2-.9-1.2zM177.9 634.5l1.1 1 1.4-1.5-1.1-1zM252.3 687c.5.2.9.5 1.3.7l.9-1.8c-.4-.2-.9-.5-1.3-.7l-.9 1.8z"/>
      <path transform="rotate(-42.971 160.708 615.878)" class="st0" d="M159.7 615.1h2v1.5h-2z"/>
      <path class="st0" d="M164 620.8l1 1 1.4-1.4-1-1zM168.5 625.4l1.1 1.1 1.4-1.5-1.1-1zM150.8 606.3l1 1.1 1.5-1.3-1-1.1z"/>
      <path transform="rotate(-82.154 364.49 721.992)" class="st0" d="M363.5 721.2h2v1.5h-2z"/>
      <path class="st0" d="M370.1 723.7l1.5.1.2-1.9-1.5-.2zM376.6 724.4l1.5.1.2-2-1.5-.1zM357.2 721.9l1.5.2.3-2-1.5-.2z"/>
      <path transform="rotate(-78.954 345.288 718.686)" class="st0" d="M344.3 718h2v1.5h-2z"/>
      <path class="st0" d="M350.8 720.8l1.4.2.4-1.9-1.5-.3z"/>
      <path transform="rotate(-87.576 396.89 724.894)" class="st0" d="M395.9 724.1h2v1.5h-2z"/>
      <path transform="matrix(.0052 -1 1 .0052 -317.393 1131.23)" class="st0" d="M408.9 724.4h2v1.5h-2z"/>
      <path class="st0" d="M402.6 726l1.5.1v-2l-1.5-.1z"/>
      <path transform="rotate(-76.697 332.58 715.92)" class="st0" d="M331.6 715.2h2v1.5h-2z"/>
      <path transform="rotate(-85.452 383.831 724.056) scale(1.00005)" class="st0" d="M382.8 723.3h2v1.5h-2z"/>
      <path class="st0" d="M389.6 725.5h1.5l.1-1.9-1.5-.1zM288 703.2l1.4.6.7-1.9-1.4-.5zM281.9 700.8l1.4.6.7-1.9-1.3-.5zM275.9 698.3l1.4.6.7-1.9-1.3-.5zM269.9 695.6l1.4.7.8-1.8-1.4-.7z"/>
      <path transform="rotate(-63.55 259.184 689.514)" class="st0" d="M258.2 688.7h2v1.5h-2z"/>
      <path class="st0" d="M325.3 715.2l1.5.4.4-2-1.4-.3zM264 692.9l1.3.6.9-1.8-1.4-.6zM312.7 711.7l1.5.4.5-1.9-1.4-.4z"/>
      <path transform="rotate(-70.135 295.151 704.827)" class="st0" d="M294.2 704.1h2v1.5h-2z"/>
      <path transform="rotate(-74.543 319.98 712.83)" class="st0" d="M319 712.1h2v1.5h-2z"/>
      <path class="st0" d="M306.5 709.8l1.4.4.6-1.9-1.4-.4zM300.3 707.7l1.4.5.6-1.9-1.4-.5zM137.1 585.9l-1.6 1.2-.9-1.2 1-.8.6-.4.9 1.2zM689.9 180.6l-1 .8-.6.4-.3-.4-.6-.8 1.6-1.2z"/>
    </g>
    <g class="st1">
      <path class="st0" d="M122.8 676.4c-.5 0-1.1-.2-1.5-.6-.4-.4-.6-.9-.6-1.5v-.4c0-.1.1-.3.1-.4.1-.1.1-.2.2-.4l.3-.3c.5-.5 1.2-.7 1.9-.6.1 0 .3.1.4.1.1 0 .2.1.4.2l.3.3.3.3c.1.1.1.2.2.4 0 .1.1.3.1.4v.4c0 .5-.2 1.1-.6 1.5-.5.3-1 .6-1.5.6z"/>
    </g>
    <path class="st2" d="M106.8 660.6c-.8-.8-.7-2.2.1-2.9.9-.8 2.2-.7 2.9.1.8.8.7 2.2-.1 2.9-.4.4-.9.5-1.4.5-.5.1-1.1-.2-1.5-.6zM93.2 644.7c-.7-.9-.6-2.2.3-2.9.9-.7 2.2-.6 2.9.3.7.9.6 2.2-.3 2.9-.4.3-.9.5-1.3.5-.6-.1-1.2-.3-1.6-.8z"/>
    <path class="st0" d="M80.3 628.1c-.7-.9-.5-2.2.4-2.9.9-.7 2.2-.5 2.9.5.7.9.5 2.2-.5 2.9-.4.3-.8.4-1.2.4-.5 0-1.2-.3-1.6-.9zM68.4 610.9c-.6-1-.4-2.2.6-2.9 1-.6 2.2-.4 2.9.6.6 1 .4 2.2-.6 2.9-.4.2-.8.3-1.1.3-.8 0-1.4-.3-1.8-.9zM57.3 593.1c-.6-1-.2-2.3.8-2.8 1-.6 2.3-.2 2.8.8.6 1 .2 2.2-.7 2.8-.3.2-.7.3-1 .3-.8-.1-1.5-.5-1.9-1.1zM47.2 574.7c-.5-1-.1-2.3.9-2.8s2.3-.1 2.8.9.1 2.3-.9 2.8c-.3.2-.6.2-1 .2-.7 0-1.4-.4-1.8-1.1zM38.1 555.8c-.5-1 0-2.3 1-2.7 1-.5 2.3 0 2.8 1s0 2.3-1 2.7c-.3.1-.6.2-.9.2-.8.1-1.6-.4-1.9-1.2zM29.9 536.6c-.4-1.1.1-2.3 1.2-2.7 1.1-.4 2.3.1 2.7 1.2.4 1.1-.1 2.3-1.2 2.7-.2.1-.5.1-.8.1-.8 0-1.6-.5-1.9-1.3zM30.3 232.3c-1.1-.4-1.6-1.6-1.1-2.7.4-1.1 1.6-1.6 2.7-1.1 1.1.4 1.6 1.6 1.1 2.7-.3.8-1.1 1.3-1.9 1.3-.3 0-.5-.1-.8-.2zM38.5 213.1c-1-.5-1.5-1.7-1-2.8.5-1 1.7-1.5 2.8-1 1 .5 1.5 1.7 1 2.8-.4.8-1.1 1.2-1.9 1.2-.3 0-.6 0-.9-.2zM47.7 194.4c-1-.5-1.4-1.8-.9-2.8.5-1 1.8-1.4 2.8-.9 1 .5 1.4 1.8.9 2.8-.4.7-1.1 1.1-1.8 1.1-.4.1-.7 0-1-.2zM57.8 176.2c-1-.6-1.3-1.9-.7-2.8.6-1 1.9-1.3 2.8-.7 1 .6 1.3 1.9.7 2.8-.4.6-1.1 1-1.8 1-.4 0-.7-.1-1-.3zM68.8 158.5c-1-.6-1.2-1.9-.6-2.9.6-.9 1.9-1.2 2.9-.6s1.2 1.9.6 2.9c-.4.6-1.1.9-1.7.9-.5 0-.9-.1-1.2-.3zM80.6 141.3c-.9-.7-1.1-2-.4-2.9.7-.9 2-1.1 2.9-.4.9.7 1.1 2 .4 2.9-.4.6-1 .8-1.7.8-.4 0-.8-.1-1.2-.4z"/>
    <path class="st2" d="M93.4 124.8c-.9-.7-1-2-.3-2.9.7-.9 2-1 2.9-.3.9.7 1 2 .3 2.9-.4.5-1 .8-1.6.8-.5 0-.9-.2-1.3-.5zM106.9 108.9c-.9-.8-.9-2.1-.1-2.9.8-.9 2.1-.9 2.9-.1.9.8.9 2.1.1 2.9-.4.5-1 .7-1.5.7s-1-.2-1.4-.6z"/>
    <g class="st1">
      <path class="st0" d="M122.8 94.3c-.5 0-1.1-.2-1.5-.6l-.3-.3c-.1-.1-.1-.2-.2-.4 0-.1-.1-.3-.1-.4v-.4c0-.6.2-1.1.6-1.5.5-.5 1.2-.7 1.9-.6.1 0 .3.1.4.1.1.1.2.1.4.2s.2.2.3.3c.4.4.6.9.6 1.5v.4c0 .1-.1.3-.1.4-.1.1-.1.2-.2.4l-.3.3-.3.3c-.1.1-.2.1-.4.2s-.3.1-.4.1h-.4z"/>
    </g>
    <g class="st1">
      <path class="st0" d="M704.8 94.3c-.6 0-1.1-.2-1.5-.6l-.3-.3c-.1-.1-.1-.2-.2-.4-.1-.1-.1-.3-.1-.4v-.4c0-.6.2-1.1.6-1.5.5-.5 1.2-.7 1.9-.6.1 0 .3.1.4.1.1.1.2.1.3.2l.3.3c.4.4.6.9.6 1.5v.4c0 .1-.1.3-.1.4-.1.1-.1.2-.2.4l-.3.3c-.3.4-.8.6-1.4.6z"/>
    </g>
    <path class="st2" d="M717.8 660.7c-.8-.8-.9-2.1-.2-2.9.8-.8 2.1-.9 2.9-.2.8.8.9 2.1.2 2.9-.4.5-1 .7-1.5.7s-1-.1-1.4-.5zM731.5 645c-.9-.7-1-2-.3-2.9.7-.9 2-1 2.9-.3.9.7 1 2 .3 2.9-.4.5-1 .8-1.6.8-.5-.1-1-.2-1.3-.5z"/>
    <path class="st0" d="M744.3 628.5c-.9-.7-1.1-2-.4-2.9.7-.9 2-1.1 2.9-.5.9.7 1.1 2 .5 2.9-.4.6-1 .9-1.7.9-.5 0-.9-.1-1.3-.4zM756.2 611.4c-1-.6-1.2-1.9-.6-2.9s1.9-1.2 2.9-.6c.9.6 1.2 1.9.6 2.9-.4.6-1.1.9-1.7.9-.4.1-.8-.1-1.2-.3zM767.3 593.7c-1-.6-1.3-1.8-.8-2.8.6-1 1.8-1.3 2.8-.8 1 .6 1.3 1.8.8 2.8-.4.7-1.1 1-1.8 1-.4.1-.7 0-1-.2zM777.4 575.5c-1-.5-1.4-1.8-.9-2.8.5-1 1.8-1.4 2.8-.9 1 .5 1.4 1.8.9 2.8-.4.7-1.1 1.1-1.8 1.1-.4 0-.7 0-1-.2zM786.5 556.8c-1-.5-1.5-1.7-1-2.7.5-1 1.7-1.5 2.7-1 1 .5 1.5 1.7 1 2.7-.3.8-1.1 1.2-1.9 1.2-.2 0-.5-.1-.8-.2zM794.8 537.6c-1.1-.4-1.6-1.6-1.2-2.7.4-1.1 1.6-1.6 2.7-1.2 1.1.4 1.6 1.6 1.2 2.7-.3.8-1.1 1.3-1.9 1.3-.3.1-.6 0-.8-.1zM794.7 231c-.4-1.1.1-2.3 1.2-2.7 1.1-.4 2.3.1 2.7 1.1.4 1.1-.1 2.3-1.2 2.7-.3.1-.5.1-.8.1-.8.1-1.6-.4-1.9-1.2zM786.4 212c-.5-1 0-2.3 1-2.8s2.3 0 2.8 1 0 2.3-1 2.8c-.3.1-.6.2-.9.2-.8 0-1.5-.4-1.9-1.2zM777.2 193.4c-.5-1-.1-2.3.9-2.8s2.3-.1 2.8.9.2 2.3-.9 2.8c-.3.2-.6.2-1 .2-.7 0-1.4-.4-1.8-1.1zM767 175.4c-.6-1-.3-2.3.7-2.8 1-.6 2.3-.3 2.8.7.6 1 .3 2.3-.7 2.8-.3.2-.7.3-1.1.3-.6 0-1.3-.4-1.7-1zM755.9 157.8c-.6-.9-.4-2.2.6-2.9.9-.6 2.2-.4 2.9.6.6.9.4 2.2-.6 2.9-.3.2-.8.3-1.1.3-.7 0-1.4-.3-1.8-.9zM744 140.8c-.7-.9-.5-2.2.4-2.9.9-.7 2.2-.5 2.9.4.7.9.5 2.2-.4 2.9-.4.3-.8.4-1.2.4-.7.1-1.3-.2-1.7-.8z"/>
    <path class="st2" d="M731.2 124.5c-.7-.9-.6-2.2.3-2.9.9-.7 2.2-.6 2.9.3.7.9.6 2.2-.3 2.9-.4.3-.8.5-1.3.5-.6-.1-1.2-.3-1.6-.8zM717.7 108.7c-.8-.9-.7-2.1.1-2.9.8-.8 2.2-.7 2.9.1.8.8.7 2.1-.1 2.9-.4.4-.9.5-1.4.5-.6.1-1.1-.1-1.5-.6z"/>
    <g class="st1">
      <path class="st0" d="M704.8 676.4c-.6 0-1.1-.2-1.5-.6l-.3-.3c-.1-.1-.1-.2-.2-.3-.1-.1-.1-.3-.1-.4v-.4-.4c0-.1.1-.3.1-.4 0-.1.1-.2.2-.4l.3-.3c.5-.5 1.2-.7 1.9-.6.1 0 .3.1.4.1.1 0 .2.1.3.2l.3.3.3.3c.1.1.1.2.2.4.1.1.1.3.1.4v.8c0 .1-.1.3-.1.4-.1.1-.1.2-.2.3l-.3.3-.3.3c-.1.1-.2.1-.3.2-.1 0-.2.1-.4.1h-.4z"/>
    </g>
    <g>
      <path class="st4" d="M796 228.5c11.2 27.6 19.5 56.6 24.5 86.8h6.1M796.2 535.6c11-27.6 19.1-56.6 23.9-86.8h6.5M31.4 535.7c-11-27.5-19-56.4-23.9-86.4H0M31.7 229.3C20.5 257 12.2 286.1 7.2 316.4H0"/>
    </g>
  </g>
</svg>